# AST/ASF file generated using VICON BodyLanguage
# -----------------------------------------------
:version 1.10
:name VICON
:units
  mass 1.0
  length 0.45
  angle deg
:documentation
   .ast/.asf automatically generated from VICON data using
   VICON BodyBuilder and BodyLanguage model FoxedUp or BRILLIANT.MOD
:root
   order TX TY TZ RX RY RZ
   axis XYZ
   position 0 0 0  
   orientation 0 0 0 
:bonedata
  begin
     id 1 
     name lhipjoint
     direction 0.650112 -0.723553 0.232005 
     length 2.45805 
     axis 0 0 0  XYZ
  end
  begin
     id 2 
     name lfemur
     direction 0.34202 -0.939693 0  
     length 7.00073  
     axis 0 0 20  XYZ
    dof rx ry rz
    limits (-160.0 20.0)
           (-70.0 70.0)
           (-60.0 70.0)
  end
  begin
     id 3 
     name ltibia
     direction 0.34202 -0.939693 0   
     length 7.8748   
     axis 0 0 20   XYZ
    dof rx
    limits (-10.0 170.0)
  end
  begin
     id 4 
     name lfoot
     direction 0.0542825 -0.14914 0.987325   
     length 1.75978   
     axis -90 7.62852e-016 20   XYZ
    dof rx rz
    limits (-45.0 90.0)
           (-70.0 20.0)
  end
  begin
     id 5 
     name ltoes
     direction 1.53509e-011 -4.21906e-011 1   
     length 0.893912   
     axis -90 7.62852e-016 20   XYZ
    dof rx
    limits (-90.0 20.0)
  end
  begin
     id 6 
     name rhipjoint
     direction -0.637897 -0.733345 0.235145   
     length 2.42522  
     axis 0 0 0  XYZ 
  end
  begin
     id 7 
     name rfemur
     direction -0.34202 -0.939693 0   
     length 7.02549   
     axis 0 0 -20   XYZ
    dof rx ry rz
    limits (-160.0 20.0)
           (-70.0 70.0)
           (-70.0 60.0)
  end
  begin
     id 8 
     name rtibia
     direction -0.34202 -0.939693 0   
     length 7.71512   
     axis 0 0 -20   XYZ
    dof rx
    limits (-10.0 170.0)
 end
 begin
     id 9 
     name rfoot
     direction -0.0822618 -0.226012 0.970645   
     length 1.90014  
     axis -90 -7.62852e-016 -20   XYZ
    dof rx rz
    limits (-45.0 90.0)
           (-20.0 70.0)
  end
  begin
     id 10 
     name rtoes
     direction -1.53542e-011 -4.21872e-011 1   
     length 0.957341   
     axis -90 -7.62852e-016 -20   XYZ
    dof rx
    limits (-90.0 20.0)
  end
  begin
     id 11 
     name lowerback
     direction -0.0022947 0.999774 -0.0211557   
     length 1.89909   
     axis 0 0 0   XYZ
    dof rx ry rz
    limits (-20.0 45.0)
           (-30.0 30.0)
           (-30.0 30.0)
  end
  begin
     id 12 
     name upperback
     direction 0.0107737 0.998635 0.0511027   
     length 1.8853   
     axis 0 0 0   XYZ
    dof rx ry rz
    limits (-20.0 45.0)
           (-30.0 30.0)
           (-30.0 30.0)
  end
  begin
     id 13 
     name thorax
     direction 0.011824 0.998136 0.0598754   
     length 1.88911   
     axis 0 0 0   XYZ
    dof rx ry rz
    limits (-20.0 45.0)
           (-30.0 30.0)
           (-30.0 30.0)
  end
  begin
     id 14 
     name lowerneck
     direction -0.0685355 0.990319 0.120714   
     length 1.91222   
     axis 0 0 0   XYZ
    dof rx ry rz
    limits (-20.0 45.0)
           (-30.0 30.0)
           (-30.0 30.0)
  end
  begin
     id 15 
     name upperneck
     direction 0.0886204 0.955665 -0.280805   
     length 1.92526   
     axis 0 0 0   XYZ
    dof rx ry rz
    limits (-20.0 45.0)
           (-30.0 30.0)
           (-30.0 30.0)
  end
  begin
     id 16
     name head
     direction 0.0233423 0.993502 -0.111393  
     length 1.96056  
     axis 0 0 0   XYZ
    dof rx ry rz
    limits (-20.0 45.0)
           (-30.0 30.0)
           (-30.0 30.0)
  end
  begin
     id 17 
     name lclavicle
     direction 0.941873 0.32922 0.0670041  
     length 3.31705  
     axis 0 0 0   XYZ
    dof ry rz
    limits (-20.0 10.0)
           (0.0 20.0)
  end
  begin
     id 18 
     name lhumerus
     direction 1 -4.4898e-011 3.38707e-028   
     length 5.29277   
     axis 180 -30 -90   XYZ
    dof rx ry rz
    limits (-60.0 90.0)
           (-90.0 90.0)
           (-90.0 90.0)
  end
  begin
     id 19
     name lradius
     direction 1 -4.48952e-011 1.63213e-028   
     length 2.85226   
     axis 180 -30 -90   XYZ
    dof rx
    limits (-10.0 170.0)
  end
  begin
     id 20
     name lwrist
     direction 1 -4.49001e-011 1.27856e-027   
     length 1.42613   
     axis -1.61767e-015 90 90   XYZ
    dof ry
    limits (-180.0 0.0)
 end
  begin
     id 21 
     name lhand
     direction 1 -4.48976e-011 2.55931e-027   
     length 0.602097   
     axis -1.63363e-015 90 90   XYZ
    dof rx rz
    limits (-90.0 90.0)
           (-45.0 45.0)
  end
  begin
     id 22 
     name lfingers
     direction 1 -4.48986e-011 5.11684e-027   
     length 0.485426   
     axis -3.26723e-015 90 90   XYZ
    dof rx
    limits (0.0 90.0)
  end
  begin
     id 23
     name lthumb
     direction 0.707107 -6.34915e-011 0.707107   
     length 0.696978   
     axis -90 45 -2.25915e-014   XYZ
    dof rx rz
    limits (-45.0 45.0)
           (-45.0 45.0)
  end
  begin
     id 24 
     name rclavicle
     direction -0.939974 0.327078 0.0973096   
     length 3.10337  
     axis 0 0 0   XYZ 
    dof ry rz
    limits (-10.0 20.0)
           (-20.0 0.0)
  end
  begin
     id 25 
     name rhumerus
     direction -1 -4.48975e-011 1.83745e-027  
     length 5.13304   
     axis 180 30 90   XYZ
    dof rx ry rz
    limits (-90.0 60.0)
           (-90.0 90.0)
           (-90.0 90.0)
  end
  begin
     id 26 
     name rradius
     direction -1 -4.48977e-011 7.1775e-029   
     length 2.74305   
     axis 180 30 90   XYZ
    dof rx
    limits (-10.0 170.0)
  end
  begin
     id 27 
     name rwrist
     direction -1 -4.48977e-011 1.27963e-027   
     length 1.37152   
     axis -1.61767e-015 -90 -90   XYZ
    dof ry
    limits (-180.0 0.0)
  end
  begin
     id 28
     name rhand
     direction -1 -4.4888e-011 2.56782e-027   
     length 0.767976   
     axis -1.63363e-015 -90 -90   XYZ
    dof rx rz
    limits (-90.0 90.0)
           (-45.0 45.0)
  end
  begin
     id 29
     name rfingers
     direction -1 -4.48947e-011 5.12384e-027   
     length 0.619162   
     axis -3.26723e-015 -90 -90   XYZ
    dof rx
    limits (0.0 90.0)
  end
  begin
     id 30
     name rthumb
     direction -0.707107 -6.34857e-011 0.707107   
     length 0.888997   
     axis -90 -45 2.25915e-014   XYZ
    dof rx rz
    limits (-45.0 45.0)
           (-45.0 45.0)
  end
:hierarchy
  begin
    root lhipjoint rhipjoint lowerback
    lhipjoint lfemur
    lfemur ltibia
    ltibia lfoot
    lfoot ltoes
    rhipjoint rfemur
    rfemur rtibia
    rtibia rfoot
    rfoot rtoes
    lowerback upperback
    upperback thorax
    thorax lowerneck lclavicle rclavicle
    lowerneck upperneck
    upperneck head
    lclavicle lhumerus
    lhumerus lradius
    lradius lwrist
    lwrist lhand lthumb
    lhand lfingers
    rclavicle rhumerus
    rhumerus rradius
    rradius rwrist
    rwrist rhand rthumb
    rhand rfingers
  end

#!OML:ASF F:\VICON\USERDATA\INSTALL\rory3\rory3.ASF
:FULLY-SPECIFIED
:DEGREES
1697
root 0.735248 16.8855 -1.8471 37.2915 -4.74477 -1.03731
lowerback 16.8787 0.76484 -0.611043
upperback -0.011871 0.98917 1.05241
thorax -9.54092 0.526735 1.24315
lowerneck -6.38296 -9.99373 -18.2055
upperneck -12.1475 -11.275 26.9765
head 0.555327 -5.65176 11.1425
rclavicle -9.54166e-015 -5.36719e-015
rhumerus 27.6352 15.0942 -78.1555
rradius 96.7956
rwrist 24.7227
rhand 14.4104 3.89025
rfingers 7.12502
rthumb 39.2964 -21.5442
lclavicle -9.54166e-015 -5.36719e-015
lhumerus 13.1777 -14.3229 83.9319
lradius 102.131
lwrist -15.4772
lhand 13.3957 36.118
lfingers 7.12502
lthumb 38.3395 61.824
rfemur -58.6356 8.18409 8.14489
rtibia 31.597
rfoot -11.3439 -7.885
rtoes -30.249
lfemur -60.6882 -4.49789 -13.6975
ltibia 37.8282
lfoot -12.5108 5.92659
ltoes -23.1154
1698
root 0.72797 16.8162 -1.86605 37.2263 -5.23904 -1.47738
lowerback 17.0193 1.24566 -0.769732
upperback 0.00977438 1.61267 1.27304
thorax -9.62574 0.836328 1.41593
lowerneck -6.27788 -10.0829 -18.2101
upperneck -12.3636 -11.3754 27.0414
head 0.507671 -5.71623 11.1656
rclavicle -1.98785e-015 1.66979e-014
rhumerus 27.8869 15.5228 -78.3766
rradius 96.3057
rwrist 25.2406
rhand 14.6063 4.02371
rfingers 7.12502
rthumb 39.481 -21.3568
lclavicle -1.98785e-015 1.66979e-014
lhumerus 14.0591 -13.656 82.949
lradius 102.542
lwrist -14.8453
lhand 12.7756 35.8081
lfingers 7.12502
lthumb 37.7539 61.6739
rfemur -59.5524 7.59495 9.33231
rtibia 33.1391
rfoot -12.5472 -6.49362
rtoes -28.7508
lfemur -61.6186 -3.59605 -13.8062
ltibia 39.8041
lfoot -13.162 5.77557
ltoes -24.1742
1699
root 0.717665 16.7395 -1.88747 37.2714 -5.81294 -1.95987
lowerback 17.0735 1.7584 -1.03721
upperback -0.0413819 2.25536 1.46425
thorax -9.75385 1.16025 1.6122
lowerneck -6.05891 -10.1366 -18.0785
upperneck -12.6348 -11.4403 27.0492
head 0.402812 -5.77602 11.157
rclavicle -1.19271e-014 0
rhumerus 27.9783 15.9261 -78.7081
rradius 95.8411
rwrist 25.7452
rhand 14.6104 4.07803
rfingers 7.12502
rthumb 39.4848 -21.3014
lclavicle -1.19271e-014 0
lhumerus 14.9822 -12.9696 81.9663
lradius 102.972
lwrist -14.3366
lhand 12.7272 35.7747
lfingers 7.12502
lthumb 37.7081 61.6527
rfemur -60.6492 7.15345 10.4435
rtibia 34.7221
rfoot -13.7324 -5.17133
rtoes -27.3518
lfemur -62.6166 -2.65197 -13.8336
ltibia 41.7225
lfoot -14.0176 5.57523
ltoes -23.2316
1700
root 0.713318 16.6619 -1.90733 37.2724 -6.2547 -2.27379
lowerback 17.1482 2.13877 -1.1858
upperback -0.0813291 2.73822 1.56812
thorax -9.87287 1.39994 1.68405
lowerneck -5.9635 -10.1767 -17.8777
upperneck -12.786 -11.4898 27.0414
head 0.342263 -5.819 11.1222
rclavicle -1.66979e-014 -2.78299e-015
rhumerus 27.9422 16.3453 -79.2225
rradius 95.7239
rwrist 26.2442
rhand 14.834 3.96632
rfingers 7.12502
rthumb 39.6954 -21.3509
lclavicle -1.66979e-014 -2.78299e-015
lhumerus 15.8846 -12.1368 81.1175
lradius 103.286
lwrist -14.0273
lhand 12.7535 35.6652
lfingers 7.12502
lthumb 37.733 61.5365
rfemur -61.6831 6.56521 11.409
rtibia 36.3541
rfoot -14.6869 -3.82558
rtoes -25.9634
lfemur -63.5768 -2.01302 -13.8924
ltibia 43.5404
lfoot -14.8935 5.38093
ltoes -21.179
1701
root 0.71313 16.5843 -1.92108 37.0135 -6.67048 -2.41767
lowerback 17.4056 2.43906 -1.29892
upperback -0.00991873 3.11198 1.60843
thorax -9.96486 1.58233 1.6888
lowerneck -6.03826 -10.2397 -17.7758
upperneck -12.8803 -11.5514 27.1053
head 0.342824 -5.85359 11.118
rclavicle 1.74931e-014 3.97569e-015
rhumerus 27.8415 16.737 -79.8652
rradius 95.722
rwrist 26.6583
rhand 15.2228 3.81258
rfingers 7.12502
rthumb 40.0613 -21.3949
lclavicle 1.74931e-014 3.97569e-015
lhumerus 16.8211 -11.2842 80.3176
lradius 103.43
lwrist -13.9404
lhand 12.508 35.5308
lfingers 7.12502
lthumb 37.5011 61.4641
rfemur -62.4458 5.94675 12.1774
rtibia 38.0312
rfoot -15.3967 -2.63413
rtoes -25.9848
lfemur -64.1878 -1.62337 -14.0569
ltibia 45.2225
lfoot -15.7544 5.31144
ltoes -19.4005
1702
root 0.708382 16.5044 -1.9347 36.7126 -7.12477 -2.40356
lowerback 17.588 2.73954 -1.60032
upperback 0.113188 3.44279 1.61143
thorax -9.9656 1.75171 1.77219
lowerneck -6.03763 -10.2951 -17.7086
upperneck -13.1105 -11.5891 27.2062
head 0.293803 -5.88552 11.1451
rclavicle -1.19271e-015 -4.37326e-015
rhumerus 27.5684 16.9742 -80.7157
rradius 95.4454
rwrist 27.0699
rhand 15.1583 3.96829
rfingers 7.12502
rthumb 40.0007 -21.2576
lclavicle -1.19271e-015 -4.37326e-015
lhumerus 17.8573 -10.437 79.5229
lradius 103.77
lwrist -14.022
lhand 12.7442 35.8564
lfingers 7.12502
lthumb 37.7242 61.7302
rfemur -63.2418 5.37795 12.7083
rtibia 39.7671
rfoot -16.0597 -1.6552
rtoes -26.2108
lfemur -64.6557 -1.26486 -14.3988
ltibia 46.7505
lfoot -16.5243 5.34564
ltoes -19.4652
1703
root 0.699272 16.4282 -1.95109 36.3746 -7.59643 -2.18537
lowerback 17.7875 3.01864 -2.04113
upperback 0.235164 3.70456 1.509
thorax -9.97798 1.89171 1.83574
lowerneck -5.89857 -10.3373 -17.5984
upperneck -13.4758 -11.6061 27.3358
head 0.179531 -5.92371 11.1903
rclavicle -2.90226e-014 -2.46493e-014
rhumerus 27.2206 17.1231 -81.6371
rradius 95.4748
rwrist 27.3866
rhand 15.0792 3.92387
rfingers 7.12502
rthumb 39.9262 -21.3244
lclavicle -2.90226e-014 -2.46493e-014
lhumerus 18.9268 -9.69235 78.7046
lradius 104.213
lwrist -14.349
lhand 13.1711 36.2297
lfingers 7.12502
lthumb 38.1275 61.9941
rfemur -64.0504 4.86331 12.9308
rtibia 41.5413
rfoot -16.7383 -0.752572
rtoes -24.7093
lfemur -65.0106 -0.938294 -14.9723
ltibia 48.1025
lfoot -17.2071 5.22458
ltoes -19.1297
1704
root 0.685882 16.356 -1.96681 35.9397 -7.90366 -1.83456
lowerback 18.1051 3.18035 -2.43545
upperback 0.372933 3.81455 1.38938
thorax -10.0281 1.95631 1.88891
lowerneck -5.80056 -10.3564 -17.5527
upperneck -13.8157 -11.585 27.5088
head 0.0796508 -5.93846 11.2647
rclavicle 3.97569e-016 -3.97569e-015
rhumerus 26.8756 17.4051 -82.5802
rradius 95.6858
rwrist 27.3905
rhand 14.7083 3.51593
rfingers 7.12502
rthumb 39.577 -21.8363
lclavicle 3.97569e-016 -3.97569e-015
lhumerus 19.976 -9.04901 77.7938
lradius 104.446
lwrist -14.7656
lhand 13.0916 36.3947
lfingers 7.12502
lthumb 38.0524 62.1796
rfemur -64.7352 4.36794 12.9938
rtibia 43.3322
rfoot -17.4214 -0.0216303
rtoes -22.968
lfemur -65.2242 -0.745647 -15.6043
ltibia 49.2887
lfoot -17.8445 5.06621
ltoes -18.8192
1705
root 0.669478 16.2885 -1.98114 35.4984 -7.96625 -1.40966
lowerback 18.4135 3.18906 -2.77734
upperback 0.551644 3.73721 1.32511
thorax -10.0165 1.93048 2.02476
lowerneck -5.98152 -10.3536 -17.5299
upperneck -14.0476 -11.5143 27.6242
head 0.0410057 -5.90435 11.3106
rclavicle -1.59028e-014 1.55052e-014
rhumerus 26.4663 17.7669 -83.7193
rradius 95.4341
rwrist 27.2406
rhand 13.7299 3.5553
rfingers 7.12502
rthumb 38.6548 -22.0627
lclavicle -1.59028e-014 1.55052e-014
lhumerus 20.9956 -8.20413 77.0293
lradius 104.557
lwrist -15.3298
lhand 13.0489 36.2614
lfingers 7.12502
lthumb 38.012 62.0574
rfemur -65.3223 3.90999 12.917
rtibia 45.0761
rfoot -18.0845 0.296923
rtoes -22.7958
lfemur -65.4083 -0.666705 -16.2375
ltibia 50.302
lfoot -18.3404 4.91361
ltoes -19.2877
